<?xml version="1.0" standalone="no"?>
<!DOCTYPE svg PUBLIC "-//W3C//DTD SVG 20010904//EN"
 "http://www.w3.org/TR/2001/REC-SVG-20010904/DTD/svg10.dtd">
<svg version="1.0" xmlns="http://www.w3.org/2000/svg"
 width="512.000000pt" height="512.000000pt" viewBox="0 0 512.000000 512.000000"
 preserveAspectRatio="xMidYMid meet">

<g transform="translate(0.000000,512.000000) scale(0.100000,-0.100000)"
fill="#FFFFFF" stroke="none">
<path d="M2399 4947 c-81 -30 -130 -83 -151 -161 -11 -42 -17 -49 -64 -70
-125 -58 -262 -173 -341 -288 -101 -146 -117 -203 -69 -245 34 -29 76 -30 103
0 11 12 35 51 54 87 22 43 63 94 119 150 86 86 194 161 209 144 5 -5 21 -88
36 -184 39 -236 19 -220 265 -220 244 0 225 -16 264 220 16 96 32 179 37 184
14 16 124 -58 205 -138 112 -112 183 -245 200 -377 l7 -49 -773 0 c-577 0
-783 -3 -814 -12 -55 -16 -138 -99 -154 -154 -36 -122 22 -243 140 -294 l52
-22 -38 -13 c-58 -20 -108 -65 -139 -126 -26 -48 -28 -61 -24 -124 8 -111 39
-179 116 -256 64 -63 120 -93 212 -113 20 -4 34 -23 67 -89 25 -51 65 -109
101 -149 l61 -66 0 -90 c0 -85 -1 -90 -23 -96 -31 -7 -217 -198 -217 -222 0
-10 18 -164 40 -342 22 -178 40 -327 40 -333 0 -5 11 -21 25 -34 42 -43 67
-34 220 74 l139 100 43 -64 c24 -36 43 -75 43 -87 -1 -13 -49 -279 -108 -593
l-107 -570 -328 -3 -327 -2 0 135 c0 131 -1 137 -25 160 -32 33 -78 33 -110 0
-24 -23 -25 -29 -25 -160 l0 -135 -201 0 -200 0 3 513 c4 486 5 516 25 588 83
297 292 519 578 614 44 15 85 31 92 37 38 31 16 122 -33 134 -54 14 -232 -56
-360 -142 -213 -141 -363 -353 -435 -614 -23 -84 -23 -94 -27 -662 l-3 -578
25 -25 25 -25 1711 0 1711 0 25 25 25 25 -3 578 c-4 568 -4 578 -27 662 -91
330 -313 587 -615 711 -159 65 -217 61 -232 -16 -10 -54 12 -79 96 -104 287
-88 509 -319 593 -620 20 -72 21 -102 25 -588 l3 -513 -200 0 -201 0 0 135 c0
131 -1 137 -25 160 -32 33 -78 33 -110 0 -24 -23 -25 -29 -25 -160 l0 -135
-327 2 -328 3 -107 570 c-59 314 -107 580 -107 593 -1 12 18 52 42 87 l43 64
140 -99 c152 -109 177 -118 219 -75 14 13 25 29 25 34 0 6 18 155 40 333 22
178 40 332 40 342 0 24 -186 215 -217 222 -22 6 -23 11 -23 96 l0 90 59 64
c34 38 77 100 102 149 34 67 49 87 68 91 69 15 124 38 173 73 79 58 126 130
147 229 21 101 11 166 -37 231 -28 38 -107 91 -135 91 -28 0 -11 18 25 25 19
5 52 28 83 59 78 78 95 167 51 261 -23 51 -78 108 -115 120 -14 4 -22 18 -26
43 -13 80 -38 180 -61 236 -77 191 -255 378 -440 463 -39 17 -54 30 -54 44 0
31 -29 91 -58 122 -57 60 -94 71 -247 74 -98 2 -151 -1 -176 -10z m297 -171
l28 -23 -33 -199 c-18 -109 -35 -207 -37 -216 -5 -15 -18 -18 -94 -18 -76 0
-89 3 -94 18 -2 9 -19 107 -37 216 l-33 199 28 23 c25 22 36 24 136 24 100 0
111 -2 136 -24z m719 -961 c16 -15 25 -36 25 -55 0 -19 -9 -40 -25 -55 l-24
-25 -831 0 -831 0 -24 25 c-16 15 -25 36 -25 55 0 19 9 40 25 55 l24 25 831 0
831 0 24 -25z m-295 -518 c0 -261 -8 -313 -61 -425 -164 -340 -625 -416 -894
-147 -73 73 -137 192 -154 289 -6 33 -11 160 -11 283 l0 223 560 0 560 0 0
-223z m-1297 50 c15 -11 17 -29 15 -155 l-3 -143 -47 30 c-56 36 -97 101 -105
169 -5 47 -3 53 25 81 33 34 84 42 115 18z m1589 -18 c28 -28 30 -34 25 -80
-9 -71 -43 -128 -102 -167 l-50 -34 -3 143 c-3 161 0 169 66 169 24 0 42 -9
64 -31z m-1062 -897 c66 -23 91 -26 210 -26 133 1 190 12 303 59 15 6 17 -1
17 -84 l0 -91 -157 -130 c-86 -71 -160 -130 -163 -130 -3 0 -77 59 -163 131
l-157 131 0 90 c0 82 2 89 18 83 9 -4 51 -19 92 -33z m-77 -376 l156 -129 -77
-57 c-169 -123 -283 -202 -287 -199 -2 2 -16 106 -31 231 l-28 228 38 39 c33
34 42 38 56 28 9 -7 87 -70 173 -141z m837 51 c0 -35 -50 -430 -55 -435 -3 -3
-259 175 -342 238 -21 16 -19 19 150 158 l171 142 38 -37 c26 -26 38 -46 38
-66z m-489 -328 c32 -23 59 -44 59 -47 0 -3 -19 -34 -41 -69 -39 -59 -44 -63
-79 -63 -35 0 -40 4 -80 65 -24 36 -40 69 -36 72 9 9 110 82 114 83 2 0 30
-19 63 -41z m56 -885 c56 -296 102 -547 102 -556 1 -17 -16 -18 -219 -18 -150
0 -220 3 -220 11 0 14 200 1080 205 1097 17 49 37 -32 132 -534z"/>
<path d="M1545 1255 c-16 -15 -25 -36 -25 -55 0 -19 9 -40 25 -55 l24 -25 231
0 231 0 24 25 c16 15 25 36 25 55 0 19 -9 40 -25 55 l-24 25 -231 0 -231 0
-24 -25z"/>
<path d="M3065 1255 c-16 -15 -25 -36 -25 -55 0 -19 9 -40 25 -55 l24 -25 231
0 231 0 24 25 c16 15 25 36 25 55 0 19 -9 40 -25 55 l-24 25 -231 0 -231 0
-24 -25z"/>
</g>
</svg>
