<svg height="496pt" fill="#FFFFFF" viewBox="0 0 496 496" width="496pt" xmlns="http://www.w3.org/2000/svg"><path d="m460.960938 132.558594-28.960938-3.621094v-11.050781c14.488281-10.132813 24-26.910157 24-45.886719v-8h16v-16h-16v-8c0-22.054688-17.945312-40-40-40h-32c-22.054688 0-40 17.945312-40 40v8h-16v16h16v8c0 18.984375 9.511719 35.761719 24 45.886719v11.050781l-28.960938 3.621094c-10.925781 1.363281-20.65625 7.210937-27.085937 15.832031l-31.953125-3.550781v-10.953125c14.488281-10.132813 24-26.910157 24-45.886719v-8h16v-16h-16v-8c0-22.054688-17.945312-40-40-40h-32c-22.054688 0-40 17.945312-40 40v8h-16v16h16v8c0 18.984375 9.511719 35.761719 24 45.886719v10.953125l-31.953125 3.550781c-6.429687-8.621094-16.160156-14.460937-27.085937-15.832031l-28.960938-3.621094v-11.050781c14.488281-10.132813 24-26.910157 24-45.886719v-8h16v-16h-16v-8c0-22.054688-17.945312-40-40-40h-32c-22.054688 0-40 17.945312-40 40v8h-16v16h16v8c0 18.984375 9.511719 35.761719 24 45.886719v11.050781l-28.960938 3.621094c-19.976562 2.488281-35.039062 19.5625-35.039062 39.6875v107.753906c0 13.230469 10.769531 24 24 24 2.953125 0 5.742188-.609375 8.351562-1.585938l7.976563 193.585938h111.34375l8.0625-193.558594c2.585937.957032 5.34375 1.558594 8.265625 1.558594 6.167969 0 11.753906-2.40625 16.007812-6.246094v6.589844l8.328126 191.65625h111.320312l8.34375-192v-6.238281c4.257812 3.839843 9.832031 6.238281 16 6.238281 2.953125 0 5.742188-.609375 8.351562-1.585938l7.976563 193.585938h111.34375l8.0625-193.558594c2.585937.957032 5.34375 1.558594 8.265625 1.558594 13.230469 0 24-10.769531 24-24v-107.753906c0-20.125-15.0625-37.199219-35.039062-39.6875zm-34.074219 11.867187 5.097656.636719-10.679687 24.929688-9.992188-9.992188zm13.113281-104.425781v8h-22.558594l5.160156-30.960938c10.015626 2.890626 17.398438 12.03125 17.398438 22.960938zm-46.558594-24h13.109375l-5.335937 32h-2.445313zm-33.441406 24c0-10.929688 7.382812-20.070312 17.398438-22.960938l5.160156 30.960938h-22.558594zm0 32v-8h80v8c0 22.054688-17.945312 40-40 40s-40-17.945312-40-40zm40 56c5.558594 0 10.929688-.839844 16-2.359375v7.046875l-16 16-16-16v-7.046875c5.070312 1.519531 10.441406 2.359375 16 2.359375zm-26.886719 16.425781 15.574219 15.574219-9.992188 9.992188-10.679687-24.929688zm-85.113281-88.425781v8h-22.558594l5.160156-30.960938c10.015626 2.890626 17.398438 12.03125 17.398438 22.960938zm-46.558594-24h13.109375l-5.335937 32h-2.445313zm-33.441406 24c0-10.929688 7.382812-20.070312 17.398438-22.960938l5.160156 30.960938h-22.558594zm0 32v-8h80v8c0 22.054688-17.945312 40-40 40s-40-17.945312-40-40zm40 56c5.558594 0 10.929688-.839844 16-2.359375v6.078125l-16 10.664062-16-10.664062v-6.078125c5.070312 1.519531 10.441406 2.359375 16 2.359375zm-26.015625 16.273438 26.015625 17.34375 26.015625-17.34375 40.640625 4.511718c12.167969 1.359375 21.34375 11.605469 21.34375 23.855469v51.359375c0 4.40625-3.59375 8-8 8h-48c-4.40625 0-8-3.59375-8-8s3.59375-8 8-8h40v-48h-16v32h-16v-32h-80v32h-16v-32h-16v48h40c4.40625 0 8 3.59375 8 8s-3.59375 8-8 8h-48c-4.40625 0-8-3.59375-8-8v-51.359375c0-12.25 9.175781-22.496094 21.34375-23.855469zm-21.984375 135.726562v-32h8v16h80v-16h8l.007812 32zm24-78.527344v-17.472656h48v17.472656c-9.289062 3.3125-16 12.113282-16 22.527344s6.710938 19.214844 16 22.527344v1.472656h-48v-1.472656c9.289062-3.3125 16-12.113282 16-22.527344s-6.710938-19.214844-16-22.527344zm-93.625-72.113281-12.566406 25.136719-10.496094-10.496094 15.574219-15.574219zm-26.710938 91.664063-7.664062 7.664062-7.664062-7.664062 6.449218-64.496094 1.214844-1.214844 1.214844 1.214844zm32.335938-197.023438v8h-22.558594l5.160156-30.960938c10.015626 2.890626 17.398438 12.03125 17.398438 22.960938zm-46.558594-24h13.109375l-5.335937 32h-2.445313zm-33.441406 24c0-10.929688 7.382812-20.070312 17.398438-22.960938l5.160156 30.960938h-22.558594zm0 32v-8h80v8c0 22.054688-17.945312 40-40 40s-40-17.945312-40-40zm40 56c5.558594 0 10.929688-.839844 16-2.359375v7.046875l-16 16-16-16v-7.046875c5.070312 1.519531 10.441406 2.359375 16 2.359375zm-26.886719 16.425781 15.574219 15.574219-10.496094 10.496094-12.566406-25.136719zm-45.113281 143.574219c-4.40625 0-8-3.59375-8-8v-107.753906c0-12.078125 9.039062-22.316406 21.023438-23.8125l7.761718-.96875 25.023438 50.039062 7.113281-7.113281-5.257813 52.585937 24.335938 24.335938 24.335938-24.335938-5.257813-52.585937 7.113281 7.113281 25.023438-50.039062 7.761718.96875c4.101563.511718 7.894532 2.117187 11.136719 4.476562-13.203125 6.609375-22.113281 20.179688-22.113281 35.730469v91.359375h-96v-88h-16v88c0 4.40625-3.59375 8-8 8zm24 8h40v184h-32.328125zm56 184v-184h39.992188l-7.664063 184zm64-192c-4.40625 0-8-3.59375-8-8v-17.472656c2.511719.898437 5.183594 1.472656 8 1.472656h8v16c0 4.40625-3.59375 8-8 8zm32.351562 24h39.648438v168h-32.335938zm55.648438 168v-168h39.648438l-7.304688 168zm72-192c-4.40625 0-8-3.59375-8-8v-16h8c2.816406 0 5.488281-.574219 8-1.472656v17.472656c0 4.40625-3.59375 8-8 8zm24 8h40v184h-32.328125zm56 184v-184h39.992188l-7.664063 184zm72-200c0 4.40625-3.59375 8-8 8s-8-3.59375-8-8v-88h-16v88h-96v-91.359375c0-15.550781-8.910156-29.128906-22.113281-35.730469 3.234375-2.359375 7.035156-3.964844 11.136719-4.476562l10.472656-1.3125 21.808594 50.886718 26.695312-26.695312 26.695312 26.695312 21.808594-50.886718 10.472656 1.3125c11.984376 1.496094 21.023438 11.734375 21.023438 23.8125zm0 0"/><path d="m392 184h16v16h-16zm0 0"/><path d="m392 216h16v16h-16zm0 0"/></svg>