<?xml version="1.0" standalone="no"?>
<!DOCTYPE svg PUBLIC "-//W3C//DTD SVG 20010904//EN"
 "http://www.w3.org/TR/2001/REC-SVG-20010904/DTD/svg10.dtd">
<svg version="1.0" xmlns="http://www.w3.org/2000/svg"
 width="512.000000pt" height="512.000000pt" viewBox="0 0 512.000000 512.000000"
 preserveAspectRatio="xMidYMid meet">

<g transform="translate(0.000000,512.000000) scale(0.100000,-0.100000)"
fill="#FFFFFF" stroke="none">
<path d="M3945 5095 c-21 -20 -25 -34 -25 -87 l0 -63 -45 -18 c-65 -27 -130
-89 -161 -155 -23 -47 -28 -71 -28 -137 -1 -68 3 -89 27 -136 15 -31 48 -75
72 -98 25 -23 45 -47 45 -54 -1 -6 -29 -111 -63 -232 l-62 -220 -109 -5 c-119
-6 -136 -15 -136 -73 0 -62 39 -87 136 -87 30 0 54 -5 54 -10 0 -6 -45 -170
-100 -365 -55 -196 -100 -367 -100 -380 0 -30 30 -62 65 -71 33 -8 73 18 89
59 7 18 60 197 117 400 l103 367 175 -2 176 -3 111 -393 c62 -216 117 -399
123 -406 33 -39 111 -24 131 25 11 26 2 66 -90 391 -56 198 -104 367 -107 375
-4 10 10 13 62 13 94 0 134 25 135 86 0 20 -9 39 -26 55 -23 21 -36 24 -123
27 l-98 4 -66 226 -66 226 49 45 c107 100 134 247 71 375 -35 73 -90 125 -157
153 l-44 18 0 63 c0 53 -4 67 -25 87 -15 16 -36 25 -55 25 -19 0 -40 -9 -55
-25z m96 -305 c30 0 97 -68 110 -110 22 -72 -13 -150 -82 -185 -40 -21 -118
-19 -153 5 -71 46 -95 139 -54 211 31 55 103 96 146 83 8 -2 22 -4 33 -4z m26
-680 l60 -210 -127 0 -127 0 60 210 c33 116 63 210 67 210 4 0 34 -94 67 -210z"/>
<path d="M1755 4175 c-138 -30 -262 -102 -363 -210 -91 -96 -1308 -1925 -1351
-2029 -58 -140 -53 -269 16 -408 60 -119 186 -224 308 -257 22 -6 497 -78
1055 -161 l1015 -150 133 57 c94 41 127 60 115 65 -10 4 -524 81 -1143 173
-1228 181 -1184 172 -1273 254 -67 62 -102 146 -102 246 0 70 4 87 29 133 63
113 168 174 306 180 69 3 97 0 145 -18 33 -12 70 -24 82 -27 61 -15 53 -24
520 680 245 370 448 674 450 677 2 2 371 -42 819 -99 449 -56 817 -101 818
-99 1 2 12 36 23 76 15 52 18 74 10 77 -7 2 -361 47 -787 100 -426 54 -776 98
-777 99 -1 1 74 117 167 256 98 147 170 265 170 278 0 57 -35 82 -152 106 -91
19 -151 19 -233 1z"/>
<path d="M3840 3199 c-12 -39 -19 -73 -16 -77 7 -6 359 -53 364 -48 2 2 -7 40
-19 83 l-21 80 -137 17 c-75 9 -139 16 -143 16 -4 0 -17 -32 -28 -71z"/>
<path d="M4670 3162 c0 -5 6 -31 14 -58 8 -27 17 -61 20 -75 5 -25 11 -27 74
-34 37 -3 81 -10 98 -13 l30 -7 -356 -615 c-196 -338 -355 -617 -354 -619 2
-2 57 20 122 49 l119 53 334 575 c184 316 338 585 343 597 12 31 0 72 -28 90
-14 10 -97 25 -217 40 -107 14 -195 25 -196 25 -2 0 -3 -4 -3 -8z"/>
<path d="M2435 2839 c-612 -112 -651 -121 -672 -145 -27 -30 -29 -61 -7 -92
26 -38 52 -41 157 -22 53 9 97 15 97 11 0 -3 -83 -152 -185 -331 -102 -179
-185 -335 -185 -348 0 -23 40 -72 59 -72 6 0 361 -52 788 -115 428 -63 792
-115 809 -115 19 0 38 9 51 23 12 12 94 151 183 310 89 158 166 287 171 287 4
0 39 -27 76 -60 37 -34 78 -63 91 -66 39 -11 72 5 89 41 15 31 15 38 2 64 -8
16 -195 191 -417 390 -330 296 -408 361 -430 360 -15 -1 -319 -55 -677 -120z
m78 -421 c57 -30 60 -68 12 -154 l-35 -63 32 -6 c94 -16 422 -65 436 -65 12 0
35 33 71 100 29 55 61 105 71 110 50 27 120 -11 120 -66 0 -35 -136 -291 -162
-305 -16 -9 -98 0 -377 42 -315 47 -359 56 -378 76 -13 12 -23 33 -23 47 0 23
106 220 139 260 28 33 62 42 94 24z"/>
<path d="M1582 2930 c-31 -13 -872 -1278 -872 -1313 0 -14 10 -37 23 -51 21
-25 56 -31 1137 -196 l1115 -170 133 59 c103 45 128 60 110 64 -13 3 -534 83
-1158 178 -624 95 -1137 174 -1139 175 -2 2 168 261 378 577 259 390 381 581
381 599 0 40 -10 57 -41 73 -32 17 -35 17 -67 5z"/>
<path d="M3505 1257 c-627 -277 -1155 -511 -1172 -520 -52 -27 -57 -101 -10
-131 29 -19 1739 -606 1765 -606 11 0 29 8 41 18 15 12 108 255 316 832 162
448 295 823 295 833 0 24 -53 77 -77 77 -10 0 -531 -227 -1158 -503z m670 -92
c14 -13 25 -34 25 -46 0 -35 -212 -611 -232 -631 -10 -10 -31 -18 -47 -18 -16
0 -167 48 -337 106 -323 110 -354 126 -354 179 0 13 10 35 23 49 27 30 828
385 870 386 17 0 38 -10 52 -25z"/>
<path d="M3765 869 c-110 -49 -209 -92 -219 -97 -15 -7 19 -22 148 -65 92 -31
169 -57 171 -57 2 0 10 19 18 43 8 23 33 93 56 155 22 61 37 112 33 111 -4 0
-97 -41 -207 -90z"/>
</g>
</svg>
