<?xml version="1.0" standalone="no"?>
<!DOCTYPE svg PUBLIC "-//W3C//DTD SVG 20010904//EN"
 "http://www.w3.org/TR/2001/REC-SVG-20010904/DTD/svg10.dtd">
<svg version="1.0" xmlns="http://www.w3.org/2000/svg"
 width="696.000000pt" height="626.000000pt" viewBox="0 0 696.000000 626.000000"
 preserveAspectRatio="xMidYMid meet">

<g transform="translate(0.000000,626.000000) scale(0.100000,-0.100000)"
fill="#FFFFFF" stroke="none">
<path d="M2720 5871 c-201 -65 -334 -201 -398 -406 -23 -77 -21 -225 5 -310
73 -234 275 -397 513 -412 267 -17 499 136 586 386 105 303 -63 639 -369 736
-98 31 -251 34 -337 6z"/>
<path d="M4071 5554 c-238 -64 -412 -318 -387 -563 41 -400 490 -620 822 -402
286 188 329 586 89 826 -64 64 -147 113 -234 139 -68 20 -216 20 -290 0z"/>
<path d="M2462 4580 c-133 -19 -245 -64 -339 -140 l-53 -41 40 -52 c81 -109
139 -275 139 -402 0 -112 -54 -284 -119 -375 -11 -15 -20 -30 -20 -33 0 -3 26
-17 58 -33 35 -17 85 -55 128 -98 80 -81 122 -156 157 -288 21 -81 22 -98 22
-623 0 -497 -1 -544 -18 -594 -27 -78 -71 -137 -133 -177 l-54 -35 0 -547 c0
-492 2 -550 17 -572 100 -151 284 -193 428 -98 56 37 97 95 124 174 11 32 20
50 20 39 2 -51 38 -122 92 -176 45 -46 67 -61 114 -74 146 -43 283 18 357 157
23 43 23 46 26 473 l3 430 -81 38 c-112 52 -134 86 -138 213 -3 74 3 127 28
259 18 91 31 167 29 168 -123 75 -232 186 -283 289 -59 116 -59 105 15 503
116 624 235 1074 335 1275 47 93 121 184 180 221 33 20 34 22 16 35 -28 19
-117 51 -197 70 -57 13 -140 17 -450 19 -209 2 -408 -1 -443 -5z"/>
<path d="M4796 4445 c-19 -19 -52 -69 -72 -111 -34 -69 -38 -85 -39 -153 0
-120 50 -203 156 -256 135 -69 282 -28 364 99 62 98 62 171 -2 238 -48 52
-202 177 -243 198 -22 11 -59 20 -84 20 -38 0 -51 -5 -80 -35z"/>
<path d="M1490 4390 c-123 -26 -247 -125 -305 -244 -88 -180 -57 -371 81 -517
199 -207 539 -175 699 67 194 292 -5 682 -355 699 -41 2 -95 0 -120 -5z"/>
<path d="M3855 4360 c-182 -27 -254 -80 -331 -245 -87 -187 -217 -708 -319
-1284 -42 -235 -43 -257 -10 -302 28 -37 94 -92 136 -114 l26 -14 28 107 c73
282 138 519 151 552 15 37 47 60 84 60 29 0 80 -48 80 -76 0 -13 -16 -83 -36
-156 -110 -405 -235 -1067 -214 -1124 13 -32 61 -52 149 -60 l70 -7 3 -536 3
-536 32 -65 c25 -51 43 -73 84 -100 45 -30 61 -35 123 -38 90 -5 159 21 211
80 38 41 51 67 70 136 l11 44 13 -56 c18 -80 64 -144 130 -178 104 -55 252
-28 317 58 l26 33 -1 473 -1 473 -23 15 c-57 39 -110 98 -140 159 l-32 66 0
450 c0 501 0 505 71 652 39 82 125 175 198 213 25 14 45 27 43 30 -23 38 -59
128 -72 175 -38 149 1 354 90 471 29 37 30 44 12 44 -8 0 -41 14 -74 30 -68
34 -149 114 -183 181 -50 97 -64 229 -35 325 8 27 15 55 15 62 0 9 -71 12
-327 11 -181 -1 -350 -5 -378 -9z"/>
<path d="M5210 3785 c-191 -54 -315 -244 -281 -431 60 -324 454 -434 671 -187
105 120 117 315 28 456 -85 133 -267 204 -418 162z"/>
<path d="M1028 3477 c-77 -43 -218 -156 -253 -201 -41 -54 -44 -109 -9 -182
16 -32 47 -77 69 -99 100 -101 282 -97 393 9 103 96 110 266 17 412 -65 102
-118 117 -217 61z"/>
<path d="M1445 3353 c54 -212 -14 -409 -176 -513 -101 -65 -269 -90 -368 -55
l-41 14 0 -372 c0 -212 4 -387 10 -406 24 -83 93 -141 187 -156 31 -5 43 -12
47 -28 3 -12 6 -296 6 -630 0 -487 3 -614 13 -640 20 -48 64 -95 111 -120 58
-30 165 -30 223 1 53 28 100 85 117 142 l13 45 7 -31 c12 -53 61 -120 109
-148 120 -71 273 -27 340 98 22 41 22 42 25 673 l3 632 48 7 c62 8 116 38 155
87 l31 39 3 476 c2 404 0 488 -13 547 -33 151 -105 251 -221 306 -100 48 -174
59 -418 59 l-218 0 7 -27z"/>
<path d="M5020 2919 c-116 -20 -226 -93 -270 -179 -49 -96 -53 -134 -58 -515
-2 -197 -1 -383 3 -412 11 -90 71 -151 160 -163 l40 -5 5 -545 c4 -482 7 -548
22 -575 36 -66 104 -105 185 -105 87 0 157 51 187 138 l13 37 7 -31 c9 -41 71
-113 113 -130 70 -30 163 -13 221 40 58 52 57 34 62 626 4 474 7 545 20 547
95 12 150 46 176 110 21 49 20 760 -1 858 -32 150 -110 243 -242 286 -62 20
-91 23 -328 25 -143 1 -285 -2 -315 -7z"/>
</g>
</svg>
