<svg id="Capa_1" enable-background="new 0 0 512 512" height="512"  viewBox="0 0 512 512" width="512" xmlns="http://www.w3.org/2000/svg" xmlns:xlink="http://www.w3.org/1999/xlink"><linearGradient id="SVGID_1_" gradientUnits="userSpaceOnUse" x1="256" x2="256" y1="512" y2="0"><stop offset="0" stop-color="#fd5900"/><stop offset="1" stop-color="#ffde00"/></linearGradient><g><g><path d="m497 196h-13.433l8.493-27.404c2.138-6.9-.945-14.344-7.337-17.711l-39.927-21.035-4.153-44.937c-.665-7.193-6.362-12.891-13.556-13.556l-44.938-4.154-21.035-39.927c-3.366-6.392-10.812-9.475-17.711-7.336l-42.973 13.317-34.681-29.657c-5.613-4.8-13.885-4.8-19.498 0l-34.682 29.659-42.973-13.317c-6.897-2.136-14.343.945-17.711 7.336l-21.035 39.927-44.937 4.154c-7.193.665-12.891 6.363-13.556 13.556l-4.154 44.937-39.927 21.035c-6.391 3.367-9.475 10.811-7.336 17.711l8.494 27.402h-13.434c-8.284 0-15 6.716-15 15v90c0 8.284 6.716 15 15 15h13.434l-8.493 27.404c-2.139 6.9.945 14.344 7.336 17.711l39.927 21.035 4.154 44.937c.665 7.193 6.363 12.891 13.556 13.556l44.937 4.154 21.035 39.927c3.367 6.392 10.81 9.474 17.711 7.336l42.973-13.317 34.682 29.659c2.807 2.4 6.278 3.6 9.749 3.6s6.942-1.2 9.749-3.6l34.682-29.659 42.973 13.317c6.898 2.136 14.344-.944 17.711-7.336l21.035-39.927 44.938-4.154c7.193-.665 12.891-6.363 13.556-13.556l4.153-44.937 39.927-21.035c6.392-3.367 9.475-10.811 7.337-17.711l-8.495-27.404h13.433c8.284 0 15-6.716 15-15v-90c0-8.284-6.716-15-15-15zm-408.617-43.399c4.488-2.365 7.478-6.838 7.945-11.89l3.755-40.627 40.628-3.755c5.052-.467 9.525-3.457 11.89-7.945l19.018-36.098 38.972 12.077c4.919 1.524 10.275.419 14.189-2.928l31.22-26.698 31.22 26.698c3.913 3.347 9.272 4.452 14.189 2.928l38.972-12.077 19.019 36.098c2.364 4.489 6.838 7.478 11.89 7.945l40.628 3.755 3.755 40.627c.467 5.052 3.456 9.525 7.945 11.89l36.098 19.018-7.558 24.381h-42.411c-23.783-61.132-83.416-105-153.747-105-70.45 0-130.012 43.99-153.747 105h-42.412l-7.556-24.381zm288.617 43.399h-242c22.469-45.58 68.812-75 121-75s98.531 29.42 121 75zm46.617 163.399c-4.489 2.365-7.479 6.838-7.945 11.89l-3.755 40.627-40.628 3.755c-5.052.467-9.525 3.456-11.89 7.945l-19.019 36.098-38.972-12.077c-4.92-1.524-10.276-.419-14.189 2.928l-31.219 26.698-31.22-26.698c-3.914-3.347-9.27-4.452-14.189-2.928l-38.972 12.077-19.018-36.098c-2.365-4.488-6.838-7.478-11.89-7.945l-40.628-3.755-3.755-40.627c-.467-5.052-3.457-9.525-7.945-11.89l-36.098-19.018 7.556-24.381h42.411c23.728 60.989 83.277 105 153.748 105 70.33 0 129.964-43.867 153.747-105h42.411l7.556 24.381zm-288.617-43.399h242c-22.469 45.58-68.812 75-121 75s-98.531-29.42-121-75zm347-30c-19.205 0-424.896 0-452 0v-60h452z" fill="#FFFFFF"/></g></g></svg>