<?xml version="1.0" standalone="no"?>
<!DOCTYPE svg PUBLIC "-//W3C//DTD SVG 20010904//EN"
 "http://www.w3.org/TR/2001/REC-SVG-20010904/DTD/svg10.dtd">
<svg version="1.0" xmlns="http://www.w3.org/2000/svg"
 width="900.000000pt" height="512.000000pt" viewBox="0 0 900.000000 512.000000"
 preserveAspectRatio="xMidYMid meet">

<g transform="translate(0.000000,512.000000) scale(0.100000,-0.100000)"
fill="#FFFFFF" stroke="none">
<path d="M4447 5106 c-50 -18 -67 -34 -88 -81 -18 -38 -19 -110 -19 -1496 l0
-1456 -107 -7 c-144 -9 -344 -40 -490 -76 -512 -125 -867 -358 -1013 -665 -50
-106 -64 -169 -63 -295 1 -190 73 -347 233 -510 374 -382 1130 -576 1944 -499
749 70 1327 395 1460 819 133 424 -155 829 -753 1061 -113 44 -377 115 -464
125 -67 8 -115 -11 -153 -61 -54 -72 -30 -188 48 -229 18 -9 92 -30 163 -46
222 -49 436 -134 585 -231 102 -66 214 -184 252 -265 110 -234 -29 -470 -379
-643 -185 -92 -420 -161 -688 -203 -117 -18 -183 -22 -405 -22 -355 -1 -582
32 -860 124 -241 79 -407 170 -523 284 -70 69 -105 123 -129 199 -121 390 429
742 1280 821 l62 6 0 -255 0 -255 -27 -5 c-60 -13 -150 -49 -194 -77 -97 -64
-121 -152 -62 -226 152 -189 683 -203 863 -23 51 51 64 89 50 142 -22 77 -138
153 -283 184 l-27 5 2 916 3 916 75 28 c94 34 1090 479 1184 528 97 51 178
129 218 210 28 57 33 76 33 142 0 65 -5 85 -32 140 -77 155 -113 178 -756 467
-287 130 -567 255 -622 278 l-100 43 -7 46 c-16 114 -112 178 -211 142z m1322
-1031 c27 -15 60 -38 72 -51 19 -21 21 -27 10 -47 -6 -12 -31 -34 -54 -49 -38
-23 -1116 -508 -1131 -508 -3 0 -6 260 -6 579 l0 579 529 -238 c292 -131 552
-250 580 -265z"/>
</g>
</svg>
